<svg xmlns="http://www.w3.org/2000/svg" width="200" height="26" viewBox="0 0 200 26" fill="none"><path d="M197.929 4.32166C197.334 4.32166 196.836 4.13685 196.434 3.76721C196.048 3.3815 195.855 2.9074 195.855 2.34491C195.855 1.78242 196.048 1.31636 196.434 0.946725C196.836 0.561018 197.334 0.368164 197.929 0.368164C198.523 0.368164 199.013 0.561018 199.399 0.946725C199.801 1.31636 200.002 1.78242 200.002 2.34491C200.002 2.9074 199.801 3.3815 199.399 3.76721C199.013 4.13685 198.523 4.32166 197.929 4.32166ZM199.592 5.91271V19.2678H196.217V5.91271H199.592Z" fill="#1C3D6D"></path><path d="M188.279 5.7197C189.292 5.7197 190.192 5.9447 190.979 6.39469C191.767 6.82861 192.377 7.47949 192.811 8.34734C193.261 9.19911 193.486 10.2277 193.486 11.433V19.2677H190.111V11.891C190.111 10.8303 189.846 10.0187 189.316 9.45624C188.785 8.87768 188.062 8.5884 187.146 8.5884C186.214 8.5884 185.475 8.87768 184.928 9.45624C184.398 10.0187 184.133 10.8303 184.133 11.891V19.2677H180.758V1.42871H184.133V7.57592C184.567 6.99736 185.145 6.54737 185.868 6.22595C186.592 5.88845 187.395 5.7197 188.279 5.7197Z" fill="#1C3D6D"></path><path d="M164.035 12.5419C164.035 11.1919 164.3 9.99463 164.831 8.95C165.377 7.90538 166.116 7.10182 167.048 6.53933C167.981 5.97684 169.017 5.6956 170.158 5.6956C171.026 5.6956 171.854 5.88845 172.641 6.27416C173.429 6.64379 174.056 7.142 174.522 7.76877V1.42871H177.945V19.2677H174.522V17.2909C174.104 17.9498 173.517 18.4802 172.762 18.882C172.006 19.2837 171.131 19.4846 170.134 19.4846C169.009 19.4846 167.981 19.1954 167.048 18.6168C166.116 18.0382 165.377 17.2266 164.831 16.182C164.3 15.1213 164.035 13.9079 164.035 12.5419ZM174.546 12.5901C174.546 11.7705 174.385 11.0714 174.064 10.4928C173.742 9.8982 173.308 9.44821 172.762 9.14286C172.215 8.82143 171.629 8.66072 171.002 8.66072C170.375 8.66072 169.797 8.8134 169.266 9.11875C168.736 9.4241 168.302 9.87409 167.965 10.4687C167.643 11.0473 167.482 11.7383 167.482 12.5419C167.482 13.3455 167.643 14.0526 167.965 14.6633C168.302 15.2579 168.736 15.716 169.266 16.0374C169.813 16.3588 170.391 16.5195 171.002 16.5195C171.629 16.5195 172.215 16.3668 172.762 16.0615C173.308 15.7401 173.742 15.2901 174.064 14.7115C174.385 14.1169 174.546 13.4097 174.546 12.5901Z" fill="#1C3D6D"></path><path d="M156.85 5.71924C158.441 5.71924 159.727 6.22548 160.707 7.23796C161.687 8.23437 162.178 9.63256 162.178 11.4325V19.2672H158.803V11.8906C158.803 10.8299 158.537 10.0183 158.007 9.45578C157.477 8.87722 156.754 8.58794 155.838 8.58794C154.905 8.58794 154.166 8.87722 153.62 9.45578C153.089 10.0183 152.824 10.8299 152.824 11.8906V19.2672H149.449V5.91209H152.824V7.57545C153.274 6.99689 153.845 6.5469 154.536 6.22548C155.243 5.88799 156.014 5.71924 156.85 5.71924Z" fill="#1C3D6D"></path><path d="M132.723 12.5421C132.723 11.1921 132.988 9.99483 133.518 8.95021C134.065 7.90558 134.796 7.10203 135.712 6.53954C136.644 5.97705 137.681 5.6958 138.822 5.6958C139.818 5.6958 140.686 5.89669 141.425 6.29847C142.181 6.70025 142.783 7.20649 143.233 7.81719V5.91276H146.632V19.2679H143.233V17.3152C142.799 17.942 142.197 18.4643 141.425 18.8822C140.67 19.2839 139.794 19.4848 138.798 19.4848C137.673 19.4848 136.644 19.1956 135.712 18.617C134.796 18.0384 134.065 17.2268 133.518 16.1822C132.988 15.1215 132.723 13.9082 132.723 12.5421ZM143.233 12.5903C143.233 11.7707 143.072 11.0716 142.751 10.493C142.43 9.8984 141.996 9.44841 141.449 9.14306C140.903 8.82164 140.316 8.66093 139.689 8.66093C139.063 8.66093 138.484 8.8136 137.954 9.11895C137.423 9.4243 136.99 9.8743 136.652 10.4689C136.331 11.0475 136.17 11.7385 136.17 12.5421C136.17 13.3457 136.331 14.0528 136.652 14.6635C136.99 15.2581 137.423 15.7162 137.954 16.0376C138.5 16.359 139.079 16.5197 139.689 16.5197C140.316 16.5197 140.903 16.367 141.449 16.0617C141.996 15.7403 142.43 15.2903 142.751 14.7117C143.072 14.1171 143.233 13.4099 143.233 12.5903Z" fill="#1C3D6D"></path><path d="M127.285 7.50398C126.9 6.79685 126.369 6.25847 125.694 5.88883C125.019 5.51919 124.232 5.33437 123.332 5.33437C122.336 5.33437 121.452 5.55937 120.68 6.00936C119.909 6.45935 119.306 7.1022 118.872 7.9379C118.438 8.7736 118.221 9.73787 118.221 10.8307C118.221 11.9557 118.438 12.936 118.872 13.7717C119.322 14.6074 119.941 15.2503 120.728 15.7003C121.516 16.1503 122.432 16.3752 123.477 16.3752C124.762 16.3752 125.815 16.0378 126.635 15.3628C127.454 14.6717 127.993 13.7155 128.25 12.4941H122.464V9.91465H131.576V12.8557C131.351 14.0289 130.869 15.1137 130.13 16.1101C129.391 17.1065 128.435 17.91 127.261 18.5207C126.104 19.1154 124.803 19.4127 123.356 19.4127C121.733 19.4127 120.262 19.0511 118.945 18.3279C117.643 17.5886 116.614 16.5681 115.859 15.2663C115.12 13.9646 114.75 12.486 114.75 10.8307C114.75 9.17538 115.12 7.69683 115.859 6.39507C116.614 5.07724 117.643 4.05672 118.945 3.33352C120.262 2.59425 121.725 2.22461 123.332 2.22461C125.228 2.22461 126.876 2.69067 128.274 3.6228C129.672 4.53885 130.636 5.83258 131.167 7.50398H127.285Z" fill="#1C3D6D"></path><path d="M102.252 5.71924C103.843 5.71924 105.129 6.22548 106.109 7.23796C107.09 8.23437 107.58 9.63256 107.58 11.4325V19.2672H104.205V11.8906C104.205 10.8299 103.94 10.0183 103.409 9.45578C102.879 8.87722 102.156 8.58794 101.24 8.58794C100.308 8.58794 99.5684 8.87722 99.022 9.45578C98.4917 10.0183 98.2265 10.8299 98.2265 11.8906V19.2672H94.8516V5.91209H98.2265V7.57545C98.6765 6.99689 99.247 6.5469 99.9381 6.22548C100.645 5.88799 101.417 5.71924 102.252 5.71924Z" fill="#1C3D6D"></path><path d="M78.1289 12.5421C78.1289 11.1921 78.3941 9.99483 78.9244 8.95021C79.4708 7.90558 80.2021 7.10203 81.1181 6.53954C82.0503 5.97705 83.0868 5.6958 84.2279 5.6958C85.2243 5.6958 86.0922 5.89669 86.8314 6.29847C87.5868 6.70025 88.1894 7.20649 88.6394 7.81719V5.91276H92.0385V19.2679H88.6394V17.3152C88.2055 17.942 87.6028 18.4643 86.8314 18.8822C86.0761 19.2839 85.2002 19.4848 84.2038 19.4848C83.0788 19.4848 82.0503 19.1956 81.1181 18.617C80.2021 18.0384 79.4708 17.2268 78.9244 16.1822C78.3941 15.1215 78.1289 13.9082 78.1289 12.5421ZM88.6394 12.5903C88.6394 11.7707 88.4787 11.0716 88.1573 10.493C87.8359 9.8984 87.4019 9.44841 86.8555 9.14306C86.3091 8.82164 85.7225 8.66093 85.0957 8.66093C84.469 8.66093 83.8904 8.8136 83.3601 9.11895C82.8297 9.4243 82.3958 9.8743 82.0583 10.4689C81.7369 11.0475 81.5762 11.7385 81.5762 12.5421C81.5762 13.3457 81.7369 14.0528 82.0583 14.6635C82.3958 15.2581 82.8297 15.7162 83.3601 16.0376C83.9065 16.359 84.485 16.5197 85.0957 16.5197C85.7225 16.5197 86.3091 16.367 86.8555 16.0617C87.4019 15.7403 87.8359 15.2903 88.1573 14.7117C88.4787 14.1171 88.6394 13.4099 88.6394 12.5903Z" fill="#1C3D6D"></path><path d="M66.5156 7.8413C66.9495 7.23059 67.5441 6.72435 68.2995 6.32258C69.0709 5.90473 69.9468 5.6958 70.9271 5.6958C72.0681 5.6958 73.0967 5.97705 74.0127 6.53954C74.9449 7.10203 75.6761 7.90558 76.2065 8.95021C76.7529 9.97876 77.0261 11.1761 77.0261 12.5421C77.0261 13.9082 76.7529 15.1215 76.2065 16.1822C75.6761 17.2268 74.9449 18.0384 74.0127 18.617C73.0967 19.1956 72.0681 19.4848 70.9271 19.4848C69.9468 19.4848 69.0789 19.2839 68.3236 18.8822C67.5843 18.4804 66.9816 17.9742 66.5156 17.3634V25.632H63.1406V5.91276H66.5156V7.8413ZM73.5788 12.5421C73.5788 11.7385 73.4101 11.0475 73.0726 10.4689C72.7512 9.8743 72.3172 9.4243 71.7708 9.11895C71.2405 8.8136 70.6619 8.66093 70.0351 8.66093C69.4244 8.66093 68.8459 8.82164 68.2995 9.14306C67.7691 9.44841 67.3352 9.8984 66.9977 10.493C66.6763 11.0877 66.5156 11.7868 66.5156 12.5903C66.5156 13.3939 66.6763 14.093 66.9977 14.6876C67.3352 15.2822 67.7691 15.7403 68.2995 16.0617C68.8459 16.367 69.4244 16.5197 70.0351 16.5197C70.6619 16.5197 71.2405 16.359 71.7708 16.0376C72.3172 15.7162 72.7512 15.2581 73.0726 14.6635C73.4101 14.0689 73.5788 13.3617 73.5788 12.5421Z" fill="#1C3D6D"></path><path d="M57.2538 7.98527C57.6878 7.27814 58.2503 6.72369 58.9413 6.32191C59.6484 5.92013 60.452 5.71924 61.352 5.71924V9.26292H60.46C59.3993 9.26292 58.5958 9.51203 58.0494 10.0102C57.519 10.5084 57.2538 11.3763 57.2538 12.6138V19.2672H53.8789V5.91209H57.2538V7.98527Z" fill="#1C3D6D"></path><path d="M47.4207 16.0614H40.719L39.6101 19.2676H36.0664L42.1172 2.41699H46.0466L52.0974 19.2676H48.5296L47.4207 16.0614ZM46.5046 13.3614L44.0698 6.32228L41.6351 13.3614H46.5046Z" fill="#1C3D6D"></path><path d="M27.5543 19.4369C26.9436 19.4369 26.4374 19.2521 26.0356 18.8824C25.6499 18.4967 25.457 18.0226 25.457 17.4601C25.457 16.8977 25.6499 16.4316 26.0356 16.062C26.4374 15.6763 26.9436 15.4834 27.5543 15.4834C28.1489 15.4834 28.6391 15.6763 29.0248 16.062C29.4105 16.4316 29.6034 16.8977 29.6034 17.4601C29.6034 18.0226 29.4105 18.4967 29.0248 18.8824C28.6391 19.2521 28.1489 19.4369 27.5543 19.4369Z" fill="#1C3D6D"></path><path d="M20.1718 7.98527C20.6057 7.27814 21.1682 6.72369 21.8593 6.32191C22.5664 5.92013 23.37 5.71924 24.27 5.71924V9.26292H23.378C22.3173 9.26292 21.5138 9.51203 20.9673 10.0102C20.437 10.5084 20.1718 11.3763 20.1718 12.6138V19.2672H16.7969V5.91209H20.1718V7.98527Z" fill="#1C3D6D"></path><path d="M5.88204 2.44092C7.64986 2.44092 9.20073 2.78645 10.5346 3.47751C11.8846 4.16856 12.9212 5.15694 13.6444 6.44263C14.3837 7.71225 14.7533 9.1908 14.7533 10.8783C14.7533 12.5657 14.3837 14.0443 13.6444 15.3139C12.9212 16.5674 11.8846 17.5398 10.5346 18.2308C9.20073 18.9219 7.64986 19.2674 5.88204 19.2674H0V2.44092H5.88204ZM5.7615 16.3987C7.52933 16.3987 8.89537 15.9166 9.85964 14.9523C10.8239 13.988 11.306 12.63 11.306 10.8783C11.306 9.12651 10.8239 7.76046 9.85964 6.78012C8.89537 5.78371 7.52933 5.28551 5.7615 5.28551H3.37494V16.3987H5.7615Z" fill="#1C3D6D"></path></svg>